HIERARCHY
ROOT Hips
{
	OFFSET 0.000000 0.000000 0.000000
	CHANNELS 6 Xposition Yposition Zposition Zrotation Yrotation Xrotation 
	JOINT LHipJoint
	{
		OFFSET 0.000000 0.000000 0.000000
		CHANNELS 3 Zrotation Yrotation Xrotation
		JOINT LeftUpLeg
		{
			OFFSET 1.363060 -1.794630 0.839290
			CHANNELS 3 Zrotation Yrotation Xrotation
			JOINT LeftLeg
			{
				OFFSET 2.448110 -6.726130 0.000000
				CHANNELS 3 Zrotation Yrotation Xrotation
				JOINT LeftFoot
				{
					OFFSET 2.562200 -7.039590 0.000000
					CHANNELS 3 Zrotation Yrotation Xrotation
					JOINT LeftToeBase
					{
						OFFSET 0.157640 -0.433110 2.322550
						CHANNELS 3 Zrotation Yrotation Xrotation
						End Site
						{
							OFFSET 0.000000 0.000000 0.000000
						}
					}
				}
			}
		}
	}
	JOINT RHipJoint
	{
		OFFSET 0.000000 0.000000 0.000000
		CHANNELS 3 Zrotation Yrotation Xrotation
		JOINT RightUpLeg
		{
			OFFSET -1.305520 -1.794630 0.839290
			CHANNELS 3 Zrotation Yrotation Xrotation
			JOINT RightLeg
			{
				OFFSET -2.542530 -6.985550 0.000000
				CHANNELS 3 Zrotation Yrotation Xrotation
				JOINT RightFoot
				{
					OFFSET -2.568260 -7.056230 0.000000
					CHANNELS 3 Zrotation Yrotation Xrotation
					JOINT RightToeBase
					{
						OFFSET -0.164730 -0.452590 2.363150
						CHANNELS 3 Zrotation Yrotation Xrotation
						End Site
						{
							OFFSET 0.000000 0.000000 0.000000
						}
					}
				}
			}
		}
	}
}
MOTION
Frames: 19
Frame Time: 0.008333
-0.456598 17.344271 -0.697747 -9.800243 -70.494167 19.720057 -10.205957 1.743462 5.621347 -6.637351 -13.549909 -15.286743 -1.512870 -0.297594 14.425358 1.142462 5.150219 -9.637471 -0.240701 0.000000 -29.421799 9.669741 -1.357311 0.084678 13.707952 -4.174541 -31.922927 -0.979440 -3.260383 55.554399 -3.238107 -18.465454 7.745508 -5.411800 0.000000 -64.245999
-0.447826 17.365561 -0.674951 -11.128709 -70.266636 20.848815 -10.340483 1.711547 5.573463 -6.080647 -13.500515 -14.964727 -1.433958 -0.290094 14.114680 1.135726 5.213528 -9.357944 -0.208999 -0.000000 -29.787300 9.711653 -1.201797 -0.021333 14.101493 -4.165352 -34.223704 -1.272874 -3.475068 59.587546 -3.036986 -17.344227 11.341039 -5.872700 0.000000 -65.724900
-0.436343 17.389057 -0.650396 -12.633667 -70.061936 22.137508 -10.493974 1.672154 5.521059 -5.449909 -13.461935 -14.624510 -1.339929 -0.278991 13.796383 1.139940 5.350441 -9.067547 -0.176500 -0.000000 -30.157000 9.721664 -1.032672 -0.129392 14.558060 -4.092455 -36.537721 -1.541326 -3.673778 63.553300 -2.846759 -15.923309 14.785417 -6.024000 -0.000000 -66.799400
-0.421997 17.414413 -0.624047 -14.308399 -69.885118 23.578576 -10.666638 1.626233 5.461626 -4.754556 -13.420212 -14.272712 -1.232049 -0.262801 13.485657 1.154422 5.554930 -8.768899 -0.142300 -0.000000 -30.536300 9.700988 -0.853012 -0.241856 15.071293 -3.954650 -38.872565 -1.789845 -3.866383 67.471200 -2.669041 -14.243838 17.941458 -5.846100 -0.000000 -67.575100
-0.404543 17.441266 -0.595945 -16.140978 -69.739327 25.156546 -10.858390 1.574439 5.391359 -4.007677 -13.359609 -13.914436 -1.112243 -0.239705 13.201345 1.177892 5.817045 -8.464056 -0.105800 0.000000 -30.933901 9.652181 -0.664912 -0.362805 15.632178 -3.758429 -41.232244 -2.028727 -4.061547 71.360217 -2.504503 -12.382025 20.699320 -5.367800 -0.000000 -68.175900
-0.383877 17.469267 -0.566384 -18.102186 -69.626595 26.837814 -11.066967 1.517116 5.306193 -3.229522 -13.273146 -13.545273 -0.982881 -0.208257 12.957296 1.209901 6.133385 -8.151400 -0.065800 -0.000000 -31.354100 9.579702 -0.468820 -0.497786 16.224391 -3.516515 -43.615141 -2.271292 -4.265927 75.237083 -2.353751 -10.441716 22.981632 -4.659400 0.000000 -68.704900
-0.359836 17.498088 -0.535503 -20.176010 -69.543055 28.600530 -11.292360 1.453944 5.200563 -2.433388 -13.144188 -13.167656 -0.846614 -0.166388 12.776731 1.247677 6.484681 -7.830886 -0.021500 -0.000000 -31.813900 9.485913 -0.264766 -0.652423 16.839470 -3.243596 -46.014486 -2.531082 -4.482596 79.108999 -2.218173 -8.547156 24.749720 -3.823200 0.000000 -69.245900
-0.332179 17.527575 -0.503804 -22.329069 -69.485336 30.402289 -11.531387 1.384144 5.069895 -1.639057 -12.971290 -12.773208 -0.706095 -0.112781 12.672986 1.290114 6.864562 -7.496133 0.028299 0.000000 -32.322200 9.374749 -0.051243 -0.832709 17.460489 -2.956931 -48.419009 -2.820157 -4.712433 82.977469 -2.099388 -6.820609 25.993647 -2.968900 -0.000000 -69.791500
-0.300860 17.557612 -0.471672 -24.533429 -69.446891 32.209776 -11.781673 1.306640 4.909891 -0.859986 -12.751088 -12.358810 -0.563847 -0.046247 12.661583 1.335063 7.259624 -7.140560 0.084800 0.000000 -32.895100 9.248410 0.173183 -1.043346 18.075308 -2.671362 -50.815841 -3.147439 -4.953487 86.832591 -1.999411 -5.371195 26.734342 -2.199200 -0.000000 -70.313201
-0.265687 17.588191 -0.439272 -26.779504 -69.418504 34.006436 -12.043570 1.219863 4.715675 -0.097609 -12.470455 -11.927966 -0.421991 0.034748 12.762352 1.378412 7.643372 -6.757037 0.148600 0.000000 -33.560400 9.106141 0.409131 -1.287717 18.681659 -2.397486 -53.189967 -3.517703 -5.201355 90.652405 -1.919967 -4.280065 27.016897 -1.593100 0.000000 -70.763400
-0.226851 17.619421 -0.407149 -29.031961 -69.394771 35.757318 -12.312365 1.122891 4.486267 0.638014 -12.137632 -11.479401 -0.282411 0.130111 12.981950 1.418940 8.009250 -6.332768 0.221400 0.000000 -34.332799 8.949899 0.658129 -1.566255 19.263956 -2.142293 -55.534290 -3.932414 -5.451802 94.411909 -1.861313 -3.581528 26.895336 -1.190800 -0.000000 -71.024400
-0.184189 17.651372 -0.375321 -31.295084 -69.366402 37.464136 -12.589761 1.013714 4.218360 1.357728 -11.735916 -11.025263 -0.146379 0.240678 13.336553 1.451726 8.324284 -5.858397 0.302600 0.000000 -35.247200 8.776248 0.919830 -1.878141 19.825535 -1.905541 -57.841210 -4.388211 -5.698763 98.074081 -1.822689 -3.270700 26.439674 -0.998000 0.000001 -71.015300
-0.137950 17.684102 -0.344230 -33.545844 -69.330207 39.109348 -12.871596 0.891376 3.913072 2.060825 -11.271064 -10.573471 -0.014930 0.365504 13.828766 1.475371 8.578542 -5.319545 0.392900 -0.000000 -36.322000 8.585338 1.195190 -2.218536 20.352526 -1.682738 -60.116309 -4.878849 -5.937690 101.602318 -1.801455 -3.295362 25.723069 -0.984800 -0.000000 -70.654600
-0.088233 17.717578 -0.313997 -35.783727 -69.281430 40.695721 -13.157116 0.754424 3.570560 2.757894 -10.734892 -10.138042 0.111356 0.503896 14.463794 1.486820 8.748425 -4.704327 0.491000 -0.000000 -37.583500 8.374730 1.483848 -2.581353 20.840050 -1.465326 -62.367438 -5.394525 -6.163985 104.956874 -1.793531 -3.572398 24.826481 -1.100400 0.000000 -69.908099
-0.035567 17.751775 -0.284907 -37.993176 -69.219617 42.219033 -13.442552 0.602286 3.193681 3.452876 -10.130559 -9.731598 0.232060 0.653968 15.237841 1.485275 8.822893 -4.000808 0.594900 -0.000001 -39.045000 8.143668 1.786028 -2.957818 21.273774 -1.242934 -64.612407 -5.922958 -6.374472 108.097871 -1.793427 -3.996582 23.834254 -1.283600 0.000000 -68.797700
0.019774 17.786410 -0.256846 -40.183985 -69.141927 43.694353 -13.729037 0.433456 2.783559 4.161470 -9.447677 -9.367650 0.347336 0.814525 16.148643 1.468759 8.778787 -3.200885 0.699700 0.000000 -40.723499 7.888057 2.100181 -3.340681 21.651152 -1.005804 -66.865831 -6.448896 -6.566020 110.985205 -1.794887 -4.459457 22.835127 -1.477500 0.000000 -67.410200
0.076875 17.821311 -0.230130 -42.329389 -69.049949 45.109509 -14.010066 0.249011 2.346968 4.880333 -8.702548 -9.054024 0.457221 0.982331 17.180606 1.439593 8.619591 -2.295666 0.801400 -0.000001 -42.611200 7.609453 2.425672 -3.719030 21.950848 -0.748494 -69.153422 -6.957653 -6.738594 113.588648 -1.791227 -4.854674 21.918094 -1.633700 0.000000 -65.898700
0.135140 17.856059 -0.204659 -44.425747 -68.942779 46.467892 -14.284304 0.049156 1.889343 5.616136 -7.901618 -8.798350 0.562320 1.154995 18.319115 1.399520 8.340821 -1.281084 0.893200 0.000000 -44.699900 7.305938 2.759850 -4.085023 22.165359 -0.470711 -71.493538 -7.432411 -6.892041 115.875686 -1.776407 -5.095302 21.169817 -1.719400 -0.000000 -64.463600
0.193519 17.890327 -0.180234 -46.456757 -68.821023 47.766740 -14.549232 -0.164612 1.418789 6.368706 -7.061529 -8.606217 0.663239 1.329465 19.544344 1.352297 7.949559 -0.156697 0.967900 0.000000 -46.968200 6.976969 3.099430 -4.430692 22.285702 -0.177218 -73.905218 -7.857750 -7.027753 117.822721 -1.745753 -5.115625 20.668768 -1.714400 0.000001 -63.323200
